<svg width="19" height="20" viewBox="0 0 19 20" fill="none" xmlns="http://www.w3.org/2000/svg">
<path d="M5.39711 0.783569C8.27075 0.783569 11.1737 0.783569 14.0474 0.783569C14.106 0.783569 14.1646 0.783569 14.194 0.813491C14.7511 0.903254 15.2789 1.02294 15.7481 1.26231C17.8593 2.33947 18.9736 4.07491 19.0029 6.49853C19.0029 9.01192 19.0029 11.4954 19.0029 14.0088C19.0029 14.2781 19.0029 14.5174 18.9736 14.7867C18.6217 17.5993 16.3052 19.7237 13.5195 19.7536C10.9685 19.7536 8.41737 19.7536 5.86628 19.7536C3.54977 19.7536 1.49718 18.2277 0.70546 16.0135C0.558846 15.5946 0.5002 15.1458 0.412231 14.697C0.412231 11.7348 0.412231 8.80247 0.412231 5.87018C0.412231 5.72058 0.470877 5.54105 0.5002 5.39144C0.940042 3.29696 2.14228 1.89066 4.07759 1.1127C4.51743 0.933176 4.95727 0.873333 5.39711 0.783569ZM2.31822 10.2686C2.31822 11.4954 2.31822 12.7521 2.31822 13.9788C2.31822 14.2182 2.31822 14.4576 2.34754 14.667C2.61144 16.4324 4.10691 17.8088 5.83696 17.8088C8.41737 17.8088 10.9978 17.8088 13.6075 17.8088C14.2233 17.8088 14.7804 17.6292 15.3082 17.33C16.4811 16.6119 17.1262 15.5348 17.1262 14.1285C17.1262 11.5552 17.1262 8.98199 17.1262 6.40877C17.1262 6.22924 17.1262 6.04971 17.0969 5.87018C16.8623 4.13475 15.3376 2.72845 13.6075 2.72845C10.9978 2.72845 8.41737 2.72845 5.80763 2.72845C5.33847 2.72845 4.89863 2.84814 4.48811 3.05759C3.08061 3.74577 2.34754 4.88278 2.31822 6.49853C2.31822 7.75522 2.31822 9.04184 2.31822 10.2985V10.2686Z" fill="#2E2E2E"/>
<path d="M9.67821 15.2056C6.92186 15.1458 4.86926 12.9316 4.86926 10.2686C4.86926 7.45601 7.0978 5.3316 9.70753 5.36152C12.4932 5.36152 14.5458 7.66546 14.5165 10.3284C14.4872 13.171 12.2586 15.2056 9.67821 15.2355V15.2056ZM12.6105 10.2686C12.6105 8.62294 11.2616 7.27648 9.67821 7.3064C8.06545 7.3064 6.77525 8.65286 6.77525 10.2985C6.77525 11.9442 8.09477 13.2907 9.70753 13.2907C11.3203 13.2907 12.6398 11.9442 12.6105 10.2985V10.2686Z" fill="#2E2E2E"/>
<path d="M13.3729 5.42134C13.3729 4.76307 13.8714 4.22449 14.5165 4.22449C15.1616 4.22449 15.6894 4.76307 15.6894 5.42134C15.6894 6.07961 15.1616 6.61819 14.5165 6.61819C13.8714 6.61819 13.3729 6.07961 13.3729 5.45126V5.42134Z" fill="#2E2E2E"/>
</svg>
