<svg width="17" height="21" viewBox="0 0 17 21" fill="none" xmlns="http://www.w3.org/2000/svg">
<path d="M8.50098 10.4502C9.05098 10.4502 9.52181 10.2544 9.91348 9.8627C10.3051 9.47103 10.501 9.0002 10.501 8.4502C10.501 7.9002 10.3051 7.42936 9.91348 7.0377C9.52181 6.64603 9.05098 6.4502 8.50098 6.4502C7.95098 6.4502 7.48014 6.64603 7.08848 7.0377C6.69681 7.42936 6.50098 7.9002 6.50098 8.4502C6.50098 9.0002 6.69681 9.47103 7.08848 9.8627C7.48014 10.2544 7.95098 10.4502 8.50098 10.4502ZM8.50098 17.8002C10.5343 15.9335 12.0426 14.2377 13.026 12.7127C14.0093 11.1877 14.501 9.83353 14.501 8.6502C14.501 6.83353 13.9218 5.34603 12.7635 4.1877C11.6051 3.02936 10.1843 2.4502 8.50098 2.4502C6.81764 2.4502 5.39681 3.02936 4.23848 4.1877C3.08014 5.34603 2.50098 6.83353 2.50098 8.6502C2.50098 9.83353 2.99264 11.1877 3.97598 12.7127C4.95931 14.2377 6.46764 15.9335 8.50098 17.8002ZM8.50098 20.4502C5.81764 18.1669 3.81348 16.046 2.48848 14.0877C1.16348 12.1294 0.500977 10.3169 0.500977 8.6502C0.500977 6.1502 1.30514 4.15853 2.91348 2.6752C4.52181 1.19186 6.38431 0.450195 8.50098 0.450195C10.6176 0.450195 12.4801 1.19186 14.0885 2.6752C15.6968 4.15853 16.501 6.1502 16.501 8.6502C16.501 10.3169 15.8385 12.1294 14.5135 14.0877C13.1885 16.046 11.1843 18.1669 8.50098 20.4502Z" fill="#2E2E2E"/>
</svg>
