<svg width="20" height="20" viewBox="0 0 20 20" fill="none" xmlns="http://www.w3.org/2000/svg">
<path d="M5.22233 0.538696C5.58138 0.778066 5.73099 1.16704 5.94044 1.5261C6.35934 2.27413 6.77823 3.05208 7.22705 3.80011C7.34674 4.00956 7.49634 4.18909 7.64595 4.39854C8.03493 4.99696 8.00501 5.35602 7.49634 5.86468C7.16721 6.19381 6.77823 6.49303 6.41918 6.79224C6.17981 6.97177 5.97036 7.18122 5.76091 7.39066C5.52154 7.65996 5.4617 7.92925 5.6113 8.25838C6.26957 9.51507 7.0176 10.7119 8.005 11.7592C9.05225 12.8962 10.279 13.7938 11.5956 14.5418C11.8349 14.6915 12.0743 14.8411 12.3436 14.9308C12.6129 15.0505 12.8522 15.0206 13.0916 14.8111C13.5105 14.4222 13.8696 13.9733 14.2286 13.5245C14.4381 13.2552 14.6774 13.0159 14.9467 12.7765C15.2459 12.5072 15.5751 12.4773 15.9341 12.7167C16.4428 13.0458 16.9515 13.3749 17.4601 13.6741C18.0286 14.0033 18.5971 14.3025 19.1656 14.6316C19.3751 14.7513 19.5845 14.871 19.7641 15.0206C19.9137 15.1403 20.0034 15.2899 20.0034 15.4993C19.9436 16.1875 19.8239 16.8757 19.5247 17.5041C19.3152 17.9529 18.8963 18.2222 18.5074 18.4915C17.7294 19.03 16.8617 19.3891 15.9341 19.5088C15.2459 19.5985 14.5578 19.5088 13.8696 19.2993C12.7326 18.9403 11.5956 18.5513 10.5184 18.0127C9.35146 17.4442 8.30422 16.6363 7.31682 15.7985C6.00028 14.6615 4.80343 13.3749 3.75619 11.9686C2.94831 10.8915 2.34989 9.6946 1.90107 8.40799C1.69162 7.80956 1.45225 7.21114 1.27272 6.61271C0.704218 5.08673 0.943588 3.65051 1.84123 2.27413C2.02075 2.00484 2.20028 1.73555 2.40973 1.46626C2.76878 1.04736 3.2176 0.837909 3.72626 0.718224C4.02548 0.658381 4.32469 0.598539 4.59398 0.538696L5.22233 0.538696Z" fill="#2E2E2E"/>
</svg>
